<mxfile host="app.diagrams.net" modified="2021-02-19T09:01:42.054Z" agent="5.0 (Windows NT 10.0; Win64; x64) AppleWebKit/537.36 (KHTML, like Gecko) Chrome/88.0.4324.182 Safari/537.36" etag="-HHNCdUUvpC8Xq2QRZut" version="14.4.2" type="github">
  <diagram name="Page-1" id="9c096ad6-e400-ecc8-3e38-643d2caac077">
    <mxGraphModel dx="1102" dy="526" grid="1" gridSize="10" guides="1" tooltips="1" connect="1" arrows="1" fold="1" page="1" pageScale="1.5" pageWidth="1169" pageHeight="826" background="#ffffff" math="0" shadow="0">
      <root>
        <mxCell id="0" style=";html=1;" />
        <mxCell id="1" style=";html=1;" parent="0" />
        <mxCell id="yAERJWaVl_2Lz2_hRMwl-6" style="edgeStyle=orthogonalEdgeStyle;rounded=0;orthogonalLoop=1;jettySize=auto;html=1;entryX=0.5;entryY=1;entryDx=0;entryDy=0;" edge="1" parent="1" source="yAERJWaVl_2Lz2_hRMwl-3" target="yAERJWaVl_2Lz2_hRMwl-5">
          <mxGeometry relative="1" as="geometry">
            <Array as="points">
              <mxPoint x="65" y="105" />
            </Array>
          </mxGeometry>
        </mxCell>
        <mxCell id="yAERJWaVl_2Lz2_hRMwl-8" style="edgeStyle=orthogonalEdgeStyle;rounded=0;orthogonalLoop=1;jettySize=auto;html=1;entryX=0;entryY=0.5;entryDx=0;entryDy=0;" edge="1" parent="1" source="yAERJWaVl_2Lz2_hRMwl-3" target="yAERJWaVl_2Lz2_hRMwl-7">
          <mxGeometry relative="1" as="geometry" />
        </mxCell>
        <mxCell id="yAERJWaVl_2Lz2_hRMwl-12" style="edgeStyle=orthogonalEdgeStyle;rounded=0;orthogonalLoop=1;jettySize=auto;html=1;entryX=0.5;entryY=0;entryDx=0;entryDy=0;startArrow=classic;startFill=1;" edge="1" parent="1" source="yAERJWaVl_2Lz2_hRMwl-3" target="yAERJWaVl_2Lz2_hRMwl-9">
          <mxGeometry relative="1" as="geometry" />
        </mxCell>
        <mxCell id="yAERJWaVl_2Lz2_hRMwl-17" style="edgeStyle=orthogonalEdgeStyle;rounded=0;orthogonalLoop=1;jettySize=auto;html=1;entryX=0.5;entryY=0;entryDx=0;entryDy=0;startArrow=none;startFill=0;" edge="1" parent="1" source="yAERJWaVl_2Lz2_hRMwl-3" target="yAERJWaVl_2Lz2_hRMwl-15">
          <mxGeometry relative="1" as="geometry">
            <Array as="points">
              <mxPoint x="145" y="70" />
              <mxPoint x="385" y="70" />
            </Array>
          </mxGeometry>
        </mxCell>
        <mxCell id="yAERJWaVl_2Lz2_hRMwl-3" value="Incidents" style="rounded=0;whiteSpace=wrap;html=1;" vertex="1" parent="1">
          <mxGeometry x="100" y="90" width="90" height="30" as="geometry" />
        </mxCell>
        <mxCell id="yAERJWaVl_2Lz2_hRMwl-5" value="經驗學習&lt;br&gt;預防再發" style="rounded=0;whiteSpace=wrap;html=1;" vertex="1" parent="1">
          <mxGeometry x="20" y="30" width="90" height="30" as="geometry" />
        </mxCell>
        <mxCell id="yAERJWaVl_2Lz2_hRMwl-7" value="通報?" style="rounded=0;whiteSpace=wrap;html=1;" vertex="1" parent="1">
          <mxGeometry x="240" y="90" width="50" height="30" as="geometry" />
        </mxCell>
        <mxCell id="yAERJWaVl_2Lz2_hRMwl-11" style="edgeStyle=orthogonalEdgeStyle;rounded=0;orthogonalLoop=1;jettySize=auto;html=1;entryX=0.5;entryY=0;entryDx=0;entryDy=0;startArrow=classic;startFill=1;" edge="1" parent="1" source="yAERJWaVl_2Lz2_hRMwl-9" target="yAERJWaVl_2Lz2_hRMwl-10">
          <mxGeometry relative="1" as="geometry" />
        </mxCell>
        <mxCell id="yAERJWaVl_2Lz2_hRMwl-9" value="KPI" style="rounded=0;whiteSpace=wrap;html=1;" vertex="1" parent="1">
          <mxGeometry x="125" y="170" width="40" height="30" as="geometry" />
        </mxCell>
        <mxCell id="yAERJWaVl_2Lz2_hRMwl-10" value="人員管理&lt;br&gt;訓練/教材&lt;br&gt;績效評估" style="rounded=0;whiteSpace=wrap;html=1;" vertex="1" parent="1">
          <mxGeometry x="110" y="250" width="70" height="50" as="geometry" />
        </mxCell>
        <mxCell id="yAERJWaVl_2Lz2_hRMwl-14" value="" style="edgeStyle=orthogonalEdgeStyle;rounded=0;orthogonalLoop=1;jettySize=auto;html=1;startArrow=none;startFill=0;" edge="1" parent="1" source="yAERJWaVl_2Lz2_hRMwl-13" target="yAERJWaVl_2Lz2_hRMwl-10">
          <mxGeometry relative="1" as="geometry" />
        </mxCell>
        <mxCell id="yAERJWaVl_2Lz2_hRMwl-13" value="部門執掌&lt;br&gt;工作說明書" style="rounded=0;whiteSpace=wrap;html=1;" vertex="1" parent="1">
          <mxGeometry x="230" y="255" width="90" height="40" as="geometry" />
        </mxCell>
        <mxCell id="yAERJWaVl_2Lz2_hRMwl-15" value="變更控制" style="rounded=0;whiteSpace=wrap;html=1;" vertex="1" parent="1">
          <mxGeometry x="350" y="90" width="70" height="30" as="geometry" />
        </mxCell>
      </root>
    </mxGraphModel>
  </diagram>
</mxfile>
